<svg xmlns="http://www.w3.org/2000/svg" xmlns:svg="http://www.w3.org/2000/svg" id="svg2987" width="16" height="16" version="1.1"><metadata id="metadata2992"/><g id="layer1" transform="translate(0,-1036.3618)"><g id="layer1-3" transform="translate(16.860288,-0.33232922)"><path style="fill:#374256;fill-opacity:1;stroke:#374256;stroke-width:.68021488;stroke-linecap:butt;stroke-linejoin:miter;stroke-miterlimit:3.5999999;stroke-dasharray:none;stroke-opacity:1" id="path3806-2-6" d="m -11.806127,1039.8755 c 5.6960491,0 6.2053961,0 6.2053961,0 l -0.0238,-0.8981 -3.1312265,-0.018 -3.1312256,-0.018 z"/><path style="fill:#b1b1b1;fill-opacity:1;stroke:none" id="path3770-7-0-9-5" d="m -4.3790729,1052.6695 v -2.1733 h 2.173211 v 2.1733 z"/><path style="fill:#b1b1b1;fill-opacity:1;stroke:none" id="path3770-7-0-6" d="m -15.245124,1052.6695 v -2.1733 h 2.173211 v 2.1733 z"/><path style="fill:none;stroke:#aeaeae;stroke-width:.54330266;stroke-linecap:butt;stroke-linejoin:miter;stroke-miterlimit:3.5999999;stroke-dasharray:none;stroke-opacity:1" id="path3775-0-9" d="m -14.158519,1041.8034 2.173211,-1.0866 v -2.1251"/><path style="fill:none;stroke:#aeaeae;stroke-width:.54330266;stroke-linecap:butt;stroke-linejoin:miter;stroke-miterlimit:3.5999999;stroke-dasharray:none;stroke-opacity:1" id="path3777-6-3" d="m -3.2924669,1041.8034 -2.173209,-1.0866 0.0065,-2.0833"/><path style="fill:#374256;fill-opacity:1;stroke:none" id="path3019-7" d="m -15.245124,1041.8034 c 0.01456,3.8432 -0.01934,6.178 0,7.6063 0.03021,2.23 0,2.1732 0,2.1732 1.185389,0 1.185389,0 1.185389,1.0866 h 10.6684851 c 0,-1.0866 0,-1.0866 1.185388,-1.0866 0,-3.26 0,-6.5198 0,-9.7795 z"/><path style="fill:#374256;fill-opacity:1;stroke:none" id="path3770-45" d="m -15.245124,1042.89 v -4.3464 h 1.086605 v 4.3464 z"/><path style="fill:#374256;fill-opacity:1;stroke:none" id="path3770-1-2" d="m -3.2924669,1042.89 v -4.3464 h 1.086605 v 4.3464 z"/><path style="fill:#b1b1b1;fill-opacity:1;stroke:none" id="path3770-7-5" d="m -15.245124,1038.5436 v -1.0867 h 1.086605 v 1.0867 z"/><path style="fill:#b1b1b1;fill-opacity:1;stroke:none" id="path3770-4-4" d="m -3.2924669,1038.5436 v -1.0867 h 1.086605 v 1.0867 z"/><path style="fill:none;stroke:#374256;stroke-width:.54330266;stroke-linecap:butt;stroke-linejoin:miter;stroke-miterlimit:3.5999999;stroke-dasharray:none;stroke-opacity:1" id="path3767-1-7" d="m -11.526891,1038.8492 c 2.6160556,-2.5761 3.1649979,-2.3796 5.6028081,0.018"/><rect style="fill:#80ecb6;fill-opacity:1;stroke:#80ecb6;stroke-width:.52320504;stroke-miterlimit:3.5999999;stroke-dasharray:none;stroke-opacity:1" id="rect4500-6-1-5-4" width="9.869" height="1.121" x="-13.612" y="1043.678" ry=".037"/><rect style="fill:#ff9800;fill-opacity:1;stroke:#ff9800;stroke-width:.47360843;stroke-linecap:round;stroke-linejoin:miter;stroke-miterlimit:3.5999999;stroke-dasharray:none;stroke-opacity:1" id="rect4500-6-1-0-54-4" width="8.859" height="1.023" x="-13.548" y="1049.32" ry=".034"/><rect style="fill:#f2f2f4;fill-opacity:1;stroke:#f2f2f4;stroke-width:.41670763;stroke-linecap:round;stroke-linejoin:miter;stroke-miterlimit:3.5999999;stroke-dasharray:none;stroke-opacity:1" id="rect4500-6-1-0-3-7-3" width="6.143" height="1.142" x="-13.582" y="1046.542" ry=".038"/></g></g></svg>